<svg viewBox="0 -305.42 685.303 685.303" xmlns="http://www.w3.org/2000/svg">
  <g stroke="none">
    <path fill="#7f5af0" d="M251.953 201.904 251.953 379.883 177.49 379.883 177.49 220.459Q177.49 163.736 136.984 161.471A61.611 61.611 0 00133.545 161.377A72.073 72.073 0 00116.111 163.349A44.789 44.789 0 0088.379 182.617Q74.463 203.857 74.463 251.465L74.463 379.883 0 379.883 0 0 74.463 0 74.463 141.846 74.951 141.846A81.593 81.593 0 01134.752 103.215A126.649 126.649 0 01154.053 101.807A142.471 142.471 0 01182.484 104.462Q210.125 110.096 227.051 127.686A83.71 83.71 0 01246.752 162.41Q250.653 175.461 251.628 191.151A173.369 173.369 0 01251.953 201.904Z" vector-effect="non-scaling-stroke"/>
    <path fill="191919" d="M0-74.463 0-305.42 685.303-305.42 685.303 379.883 326.416 379.883 326.416 305.42 610.84 305.42 610.84-230.957 74.463-230.957 74.463-74.463Z" vector-effect="non-scaling-stroke"/>
  </g>
</svg>