<svg viewBox="-0.008 0 508.948 464.014" xmlns="http://www.w3.org/2000/svg">
  <g stroke="none">
    <path fill="#8654E8" d="M 508.94 0 L 508.94 464.01 L 410.869 464.01 L 410.869 263.74 L 227.109 263.74 L 196 263.74 L 196 181.86 L 410.869 181.86 L 410.869 0 L 508.94 0 Z" vector-effect="non-scaling-stroke"/>
    <path fill="191919" d="m0 464.01v-464.01h144.41q98.427 0 143.04 27.929a105.91 105.91 0 0 1 0.254 0.159 106.7 106.7 0 0 1 0.694 0.441q43.595 27.933 43.896 88.067a167.35 167.35 0 0 1 2e-3 0.836 176.02 176.02 0 0 1-3e-3 0.972q-0.217 39.385-18.099 65.272a89.006 89.006 0 0 1-1.417 1.993q-19.254 26.298-51.016 31.905a92.78 92.78 0 0 1-0.876 0.151v3.173a184.08 184.08 0 0 1 0.687 0.155q43.308 9.833 62.704 36.327a73.983 73.983 0 0 1 0.244 0.335 84.86 84.86 0 0 1 1.053 1.488q18.292 26.461 18.464 69.42a204.09 204.09 0 0 1 2e-3 0.82q0 62.853-44.964 98.322a133.57 133.57 0 0 1-0.898 0.702 140.03 140.03 0 0 1-2.168 1.647q-45.231 33.671-121.37 33.898a347.16 347.16 0 0 1-1.037 2e-3h-173.61zm159.33-202.17h-60.937v120.92h64.111a210.95 210.95 0 0 0 0.633-1e-3q39.904-0.12 59.122-15.367a48.59 48.59 0 0 0 0.23-0.184q19.361-15.552 19.361-47.608a80.159 80.159 0 0 0-3e-3 -0.674q-0.481-57.089-82.517-57.089zm-60.937-181.23v103.15h57.129a256.7 256.7 0 0 0 0.623-1e-3q39.507-0.096 57.299-12.377 17.747-12.25 17.93-40.354a90.211 90.211 0 0 0 2e-3 -0.589q0-26.594-19.423-38.187a44.931 44.931 0 0 0-0.096-0.057q-19.364-11.493-61.063-11.584a305.71 305.71 0 0 0-0.668-1e-3h-51.733z" vector-effect="non-scaling-stroke"/>
  </g>
</svg>
