<!--http://www.logobook.com/logo/bosca/-->
<?xml version="1.0" encoding="utf-8"?>
<svg viewBox="0 -52.65 304.603 432.533" xmlns="http://www.w3.org/2000/svg">
  <g stroke="none">
    <path fill="#F3F4F6" d="M251.953 201.904 251.953 379.883 304.603 327.233 304.603 149.254A173.369 173.369 0 00304.278 138.501Q303.303 122.811 299.402 109.76A83.71 83.71 0 00279.701 75.036Q262.775 57.446 235.134 51.812A142.471 142.471 0 00206.703 49.157 126.649 126.649 0 00187.402 50.565 81.593 81.593 0 00127.601 89.196L127.113 89.196 127.113-52.65 74.463 0 74.463 141.846 74.951 141.846A81.593 81.593 0 01134.752 103.215 126.649 126.649 0 01154.053 101.807 142.471 142.471 0 01182.484 104.462Q210.125 110.096 227.051 127.686A83.71 83.71 0 01246.752 162.41Q250.653 175.461 251.628 191.151A173.369 173.369 0 01251.953 201.904ZM75 379.65 127 327 127 199C127 184 127 171 128 161 110 161 73 171 75 250Z" vector-effect="non-scaling-stroke"/>
  </g>
</svg>