<?xml version="1.0" encoding="utf-8"?>
<svg viewBox="-87.613 -246.269 700.954 615.993" xmlns="http://www.w3.org/2000/svg" class="higby">
  <g stroke="none">
    <path fill="#2A2E32" d="M0 0A15 15 0 102.334 9.724L80.124-8.952 94.131 49.39 76.632 105.012 112.806 127.18 126.813 185.522 104.645 221.697 140.82 243.864 154.827 302.206A35 35 0 10164.55 299.872L150.544 241.53 172.711 205.355 136.537 183.188 122.53 124.845 144.698 88.671 103.854 47.056 89.848-11.286 133.604-21.791 274.287 64.419 284.792 108.176 350.075 46.224 437.589 25.214 467.431 43.501 509.232-24.71 479.389-42.998 523.799-115.469 585.756-130.344A15 15 0 10583.422-140.067L559.113-134.231C605.724-174.884 611.156-235.312 519.021-246.262 506.591-246.804 521.018-217.45 506.08-222.549 484.712-231.59 478.862-218.426 505.682-185.892A10 10 0 10510.085-192.943C504.755-197.019 492.585-218.125 500.842-215.807 532.98-205.342 514.194-237.245 525.853-236.261 563.613-235.681 620.563-198.456 544.569-130.739L38.123-9.152C25.076-25.704-1.961-46.999-31.23-47.63-55.226-47.949-60.685-51.156-68.972-64.256A10 10 0 10-76.368-59.367C-61.364-41.375-57.76-38.43-27.685-39.285 1.644-37.843 24.896-10.331 27.868-6.691ZM147.356-25.093 510.048-112.167 470.863-48.223 441.02-66.511 399.22 1.701 425.53 17.824 347.122 36.648 260.829 11.087 270.219 50.198ZM118.397 218.395 133.809 193.244 158.96 208.657 143.548 233.808ZM130.947 91.972 115.534 117.123 90.383 101.711 101.911 60.378ZM133.816 214.693A1 1 0 00143.54 212.359 1 1 0 00133.816 214.693ZM105.803 98.009A1 1 0 00115.527 95.674 1 1 0 00105.803 98.009ZM145.633 340.408A1 1 0 01190.085 329.736 1 1 0 01145.633 340.408Z" vector-effect="non-scaling-stroke"/>
  </g>
</svg>